<?xml version="1.0" encoding="iso-8859-1"?>
<!-- Generator: Adobe Illustrator 19.0.0, SVG Export Plug-In . SVG Version: 6.00 Build 0)  -->
<svg version="1.1" id="Layer_1" xmlns="http://www.w3.org/2000/svg" xmlns:xlink="http://www.w3.org/1999/xlink" x="0px" y="0px"
	 viewBox="0 0 512.001 512.001" style="enable-background:new 0 0 512.001 512.001;" xml:space="preserve">
<g>
	<g>
		<g>
			<path d="M204.998,205.409c-11.089,0-20.112,9.13-20.112,20.402c0,11.272,9.024,20.409,20.112,20.409
				c11.102,0,20.124-9.137,20.124-20.409C225.122,214.538,216.1,205.409,204.998,205.409z"/>
			<path d="M306.852,205.25c-11.195,0-20.277,9.205-20.277,20.561s9.082,20.561,20.277,20.561c11.182,0,20.263-9.205,20.263-20.561
				S318.033,205.25,306.852,205.25z"/>
			<path d="M462.516,73.69c-8.979-33.905-24.07-56.018-24.708-56.943L426.253,0l-72.85,84.795
				c-34.401-10.543-70.844-12.005-97.404-12.005s-63.003,1.462-97.404,12.005L85.747,0L74.193,16.747
				c-0.638,0.925-15.729,23.038-24.708,56.943c-11.549,43.606-7.81,87.207,10.774,126.418c-0.59,5.947-0.902,12.071-0.902,18.387
				c0,44.996,10.4,72.719,23.567,107.819c4.437,11.826,9.023,24.054,13.782,38.373c12.195,36.7,26.918,74.518,51.858,102.499
				c26.877,30.155,62.02,44.815,107.438,44.815c45.418,0,80.561-14.659,107.438-44.815c24.94-27.981,39.662-65.8,51.858-102.499
				c4.758-14.319,9.345-26.547,13.782-38.373c13.167-35.099,23.567-62.823,23.567-107.819c0-6.316-0.313-12.44-0.902-18.387
				C470.326,160.896,474.065,117.296,462.516,73.69z M80.098,140.005c-1.418,2.204-2.746,4.474-4.019,6.784
				c-3.351-20.643-2.211-42.043,3.459-64.006c3.014-11.675,6.914-21.756,10.502-29.637l37.886,44.096
				C107.552,107.954,91.474,122.322,80.098,140.005z M256,384.422c-4.322,0-13.124-4.431-21.585-12.9
				c-8.52-8.527-12.978-17.544-12.978-22.042c0-4.118,0.784-4.631,3.504-5.777c7.175-3.024,21.162-3.373,31.059-3.373
				c9.897,0,23.884,0.349,31.059,3.373c2.72,1.145,3.504,1.659,3.504,5.777c0,4.498-4.458,13.515-12.978,22.042
				C269.124,379.991,260.322,384.422,256,384.422z M399.698,315.293c-4.328,11.536-9.233,24.612-14.18,39.5
				c-25.104,75.549-51.546,119.053-113.83,125.096v-67.159c12.824-4.852,23.304-14.235,28.095-19.031
				c6.662-6.669,22.157-24.326,22.157-44.22c0-16.438-7.848-28.435-22.697-34.692c-9.836-4.144-22.365-5.835-43.243-5.835
				c-20.878,0-33.407,1.69-43.243,5.835c-14.849,6.257-22.697,18.253-22.697,34.692c0,19.894,15.495,37.551,22.157,44.22
				c4.791,4.795,15.27,14.179,28.095,19.031v67.159c-62.283-6.044-88.726-49.547-113.83-125.096
				c-4.947-14.886-9.852-27.962-14.18-39.5c-12.522-33.379-21.569-57.495-21.569-96.799c0-45.881,17.973-76.981,54.946-95.082
				c26.454-12.95,62.541-19.246,110.321-19.246c47.78,0,83.867,6.295,110.321,19.246c36.974,18.1,54.946,49.201,54.946,95.082
				C421.267,257.798,412.22,281.914,399.698,315.293z M435.857,146.674c-1.255-2.27-2.56-4.502-3.955-6.669
				c-11.376-17.683-27.455-32.052-47.828-42.763l37.894-44.108C431.048,73.116,442.133,107.365,435.857,146.674z"/>
		</g>
	</g>
</g>
<g>
</g>
<g>
</g>
<g>
</g>
<g>
</g>
<g>
</g>
<g>
</g>
<g>
</g>
<g>
</g>
<g>
</g>
<g>
</g>
<g>
</g>
<g>
</g>
<g>
</g>
<g>
</g>
<g>
</g>
</svg>
