<?xml version="1.0" encoding="iso-8859-1"?>
<!-- Generator: Adobe Illustrator 19.0.0, SVG Export Plug-In . SVG Version: 6.00 Build 0)  -->
<svg version="1.1" id="Capa_1" xmlns="http://www.w3.org/2000/svg" xmlns:xlink="http://www.w3.org/1999/xlink" x="0px" y="0px"
	 viewBox="0 0 49.989 49.989" style="enable-background:new 0 0 49.989 49.989;" xml:space="preserve">
<g>
	<g>
		<path d="M49.565,0.292c-0.274-0.273-0.682-0.363-1.044-0.234L35.948,4.565C32.614,2.878,28.88,1.989,25.12,1.989
			c-3.8,0-7.57,0.908-10.933,2.629l-12.72-4.56c-0.363-0.129-0.77-0.039-1.044,0.234C0.15,0.566,0.059,0.973,0.189,1.337
			l4.387,12.237C2.313,17.312,1.12,21.593,1.12,25.989c0,13.233,10.766,24,24,24c13.233,0,24-10.767,24-24
			c0-4.503-1.249-8.873-3.615-12.672L49.8,1.337C49.93,0.973,49.839,0.566,49.565,0.292z M43.457,13.103
			c-0.105,0.295-0.067,0.622,0.104,0.884c2.328,3.57,3.559,7.721,3.559,12.002c0,12.131-9.869,22-22,22s-22-9.869-22-22
			c0-4.181,1.177-8.248,3.405-11.763c0.165-0.261,0.201-0.582,0.097-0.873L2.786,2.656l11.14,3.993
			c0.267,0.095,0.561,0.073,0.81-0.061c3.171-1.7,6.762-2.6,10.384-2.6c3.584,0,7.142,0.881,10.287,2.549
			c0.248,0.132,0.541,0.152,0.806,0.058l10.99-3.94L43.457,13.103z"/>
		<circle cx="16.13" cy="21.999" r="2"/>
		<circle cx="34.13" cy="21.999" r="2"/>
		<path d="M34.13,33.999c0,2.206-1.794,4-4,4s-4-1.794-4-4v-0.081c2.279-0.372,4-1.987,4-3.919c0-2.206-2.243-4-5-4s-5,1.794-5,4
			c0,1.932,1.721,3.547,4,3.919v0.081c0,2.206-1.794,4-4,4s-4-1.794-4-4v-1h-2v1c0,3.309,2.691,6,6,6c2.086,0,3.924-1.071,5-2.69
			c1.076,1.62,2.914,2.69,5,2.69c3.309,0,6-2.691,6-6v-1h-2V33.999z M22.13,29.999c0-1.084,1.374-2,3-2s3,0.916,3,2s-1.374,2-3,2
			S22.13,31.083,22.13,29.999z"/>
	</g>
</g>
<g>
</g>
<g>
</g>
<g>
</g>
<g>
</g>
<g>
</g>
<g>
</g>
<g>
</g>
<g>
</g>
<g>
</g>
<g>
</g>
<g>
</g>
<g>
</g>
<g>
</g>
<g>
</g>
<g>
</g>
</svg>
